<mxfile host="app.diagrams.net" modified="2023-08-03T10:37:40.474Z" agent="Mozilla/5.0 (Macintosh; Intel Mac OS X 10_15_7) AppleWebKit/537.36 (KHTML, like Gecko) Chrome/114.0.0.0 Safari/537.36" version="21.3.5" etag="JidhaWyMFOHHBXyTRGIK" type="github">
  <diagram name="第 1 页" id="qVAEXEgdR_CzXwVNSxdu">
    <mxGraphModel>
      <root>
        <mxCell id="0" />
        <mxCell id="1" parent="0" />
      </root>
    </mxGraphModel>
  </diagram>
</mxfile>
